<svg xmlns="http://www.w3.org/2000/svg" viewBox="0 0 137.16 272.5"><defs><style>.cls-1{fill:#010f36;}.cls-2{fill:#fff;}</style></defs><title>Asset 1</title><g id="Layer_2" data-name="Layer 2"><g id="Layer_1-2" data-name="Layer 1"><g id="Layer_2-2" data-name="Layer 2"><g id="Layer_1-2-2" data-name="Layer 1-2"><path class="cls-1" d="M51.51,272.5A2.5,2.5,0,0,1,49,270.7L.14,139A4,4,0,0,1,0,138v-1a2.53,2.53,0,0,1,.76-1.86,2.71,2.71,0,0,1,2-.76H36.6a2.36,2.36,0,0,1,2.49,1.8l7.46,19.75H90.73l7.32-19.75a2.36,2.36,0,0,1,2.49-1.8h34a2.59,2.59,0,0,1,2.62,2.56s0,0,0,.06v1a2.64,2.64,0,0,1-.14.83L88.11,270.7a2.5,2.5,0,0,1-2.49,1.8Zm17-57L78.18,190H59.11Z"/><path class="cls-2" d="M85.62,0a2.5,2.5,0,0,1,2.49,1.8L137,133.69a2.64,2.64,0,0,1,.14.83v1a2.59,2.59,0,0,1-2.56,2.62H100.52a2.36,2.36,0,0,1-2.49-1.8l-7.32-19.75H46.54l-7.46,19.75a2.36,2.36,0,0,1-2.49,1.8H2.76a2.71,2.71,0,0,1-2-.76,2.53,2.53,0,0,1-.76-1.9v-1a4,4,0,0,1,.14-1L49,1.8A2.5,2.5,0,0,1,51.51,0ZM59.11,82.59H78.17L68.5,57Z"/></g></g></g></g></svg>