<svg xmlns="http://www.w3.org/2000/svg" viewBox="0 0 880.14 142.11"><defs><style>.cls-1{fill:#fff;}</style></defs><title>Asset 3</title><g id="Layer_2" data-name="Layer 2"><g id="Layer_1-2" data-name="Layer 1"><path class="cls-1" d="M85.62,0a2.5,2.5,0,0,1,2.49,1.8L137,133.69a2.64,2.64,0,0,1,.14.83v1a2.59,2.59,0,0,1-2.62,2.62h-34a2.36,2.36,0,0,1-2.49-1.8l-7.32-19.75H46.54l-7.46,19.75a2.36,2.36,0,0,1-2.49,1.8H2.76a2.71,2.71,0,0,1-2-.76A2.53,2.53,0,0,1,0,135.48v-1a4,4,0,0,1,.14-1L49,1.8A2.5,2.5,0,0,1,51.51,0ZM59.11,82.59H78.17L68.5,57Z"/><path class="cls-1" d="M229.25,138.1H197.63a3.11,3.11,0,0,1-1.86-.9,2.54,2.54,0,0,1-.76-1.86V80.51a6.55,6.55,0,0,0-.83-3.18A5.78,5.78,0,0,0,188.79,74a5.89,5.89,0,0,0-4.42,1.86,6.41,6.41,0,0,0-1.8,4.63v54.83a2.83,2.83,0,0,1-2.76,2.76H144a2.61,2.61,0,0,1-2.76-2.76V46a2.77,2.77,0,0,1,.76-1.93,2.59,2.59,0,0,1,2-.83H170.7a63.12,63.12,0,0,1,15.88-1.93,56.93,56.93,0,0,1,19.61,3.18,39.09,39.09,0,0,1,14.29,8.7A37.74,37.74,0,0,1,229,66.08a42.4,42.4,0,0,1,3,16v53.31a2.59,2.59,0,0,1-.83,2A2.78,2.78,0,0,1,229.25,138.1Z"/><path class="cls-1" d="M272.06,33H238.78a2.58,2.58,0,0,1-2-.83,2.76,2.76,0,0,1-.76-1.93V2.76a2.71,2.71,0,0,1,.76-2,2.71,2.71,0,0,1,2-.76h33.28A2.78,2.78,0,0,1,274,.76a2.59,2.59,0,0,1,.83,2V30.25A2.83,2.83,0,0,1,272.06,33Zm0,105.1H238.78a2.61,2.61,0,0,1-2.76-2.76V48.06a2.77,2.77,0,0,1,.76-1.93,2.59,2.59,0,0,1,2-.83h33.28a2.83,2.83,0,0,1,2.76,2.76v87.28a2.59,2.59,0,0,1-.83,2A2.78,2.78,0,0,1,272.06,138.1Z"/><path class="cls-1" d="M418.45,138.1h-31.9a2.43,2.43,0,0,1-1.86-.83,2.77,2.77,0,0,1-.76-1.93V80.51a6.54,6.54,0,0,0-.83-3.18A5.78,5.78,0,0,0,377.71,74a5.89,5.89,0,0,0-4.42,1.86,6.41,6.41,0,0,0-1.79,4.63v54.83a2.83,2.83,0,0,1-2.76,2.76H334.07a2.43,2.43,0,0,1-1.86-.83,2.77,2.77,0,0,1-.76-1.93V80.51a6.54,6.54,0,0,0-.83-3.18A5.78,5.78,0,0,0,325.23,74a5.89,5.89,0,0,0-4.42,1.86A6.41,6.41,0,0,0,319,80.51v54.83a2.59,2.59,0,0,1-.83,2,2.78,2.78,0,0,1-1.93.76H281.59a2.61,2.61,0,0,1-2.76-2.76V46a2.77,2.77,0,0,1,.76-1.93,2.59,2.59,0,0,1,2-.83h26.65a63.69,63.69,0,0,1,16-1.93q14.78,0,25.69,5.94,10.91-5.94,25.83-5.94a56.92,56.92,0,0,1,19.61,3.18,39.08,39.08,0,0,1,14.29,8.7,36.9,36.9,0,0,1,8.49,12.91,43.27,43.27,0,0,1,2.9,16v53.31a2.71,2.71,0,0,1-.76,2A2.54,2.54,0,0,1,418.45,138.1Z"/><path class="cls-1" d="M518.85,70.43a57.15,57.15,0,0,1,5.39,22.79,2.26,2.26,0,0,1-2.07,2.62l-52.34,11.6a15.91,15.91,0,0,0,7.46,1.79A17.94,17.94,0,0,0,489.16,105a2.7,2.7,0,0,1,2.14-.69,2.17,2.17,0,0,1,1.73,1.1l14.36,21.13a2.43,2.43,0,0,1-.41,3.59,49.32,49.32,0,0,1-75.06-12.64,49.07,49.07,0,0,1-6.56-24.93v-.14a30.08,30.08,0,0,1,.28-4,49.23,49.23,0,0,1,49-45.16,49,49,0,0,1,26.17,7.25A47.3,47.3,0,0,1,518.85,70.43Zm-38,2.21a21.73,21.73,0,0,0-10.08,2.42A15.3,15.3,0,0,0,464,81.34a.59.59,0,0,0,0,.76.58.58,0,0,0,.69.21l25.55-5.52a.67.67,0,0,0,.48-.55.75.75,0,0,0-.21-.69A16.44,16.44,0,0,0,480.88,72.64Z"/><path class="cls-1" d="M604.89,2.76V30.25a2.43,2.43,0,0,1-.83,1.86,2.77,2.77,0,0,1-1.93.76H571.89V135.34a2.59,2.59,0,0,1-.83,2,2.78,2.78,0,0,1-1.93.76H535.7a2.53,2.53,0,0,1-1.86-.76,2.71,2.71,0,0,1-.76-2V32.87H502.83a2.7,2.7,0,0,1-2-.76,2.53,2.53,0,0,1-.76-1.86V2.76a2.71,2.71,0,0,1,.76-2,2.71,2.71,0,0,1,2-.76h99.3a2.78,2.78,0,0,1,1.93.76A2.59,2.59,0,0,1,604.89,2.76Z"/><path class="cls-1" d="M584.32,45.44h31.63a2.43,2.43,0,0,1,1.86.83,2.62,2.62,0,0,1,.76,1.8v54.83a6.55,6.55,0,0,0,.83,3.18,6,6,0,0,0,9.88,1.52,6.51,6.51,0,0,0,1.86-4.7V48.2a2.77,2.77,0,0,1,.76-1.93,2.43,2.43,0,0,1,1.86-.83l33.56-.14a2.83,2.83,0,0,1,2.76,2.76v89.21a2.83,2.83,0,0,1-2.76,2.76l-24.44.14A63.13,63.13,0,0,1,627,142.11a56.9,56.9,0,0,1-19.61-3.18,36.81,36.81,0,0,1-22.72-21.61,42,42,0,0,1-3-15.81V48.06a2.59,2.59,0,0,1,2.62-2.62Z"/><path class="cls-1" d="M731.81,43.36a49.81,49.81,0,0,1,45,43.92A49.12,49.12,0,0,1,748,137.69a48.3,48.3,0,0,1-20.3,4.42,50,50,0,0,1-14.78-2.21V140H676.71a2.59,2.59,0,0,1-2.62-2.62V2.62a2.54,2.54,0,0,1,.76-1.86A2.54,2.54,0,0,1,676.71,0h33.42a2.78,2.78,0,0,1,1.93.76,2.43,2.43,0,0,1,.83,1.86v43A50.22,50.22,0,0,1,731.81,43.36Zm-13.95,59.18a13.13,13.13,0,0,0,9.74,4.07,13.87,13.87,0,0,0,9.8-23.69,13.38,13.38,0,0,0-9.8-4.07,13.14,13.14,0,0,0-9.74,4.07,14,14,0,0,0,0,19.61Z"/><path class="cls-1" d="M874.75,70.43a57.15,57.15,0,0,1,5.39,22.79,2.26,2.26,0,0,1-2.07,2.62l-52.34,11.6a15.91,15.91,0,0,0,7.46,1.79A17.94,17.94,0,0,0,845.06,105a2.7,2.7,0,0,1,2.14-.69,2.17,2.17,0,0,1,1.73,1.1l14.36,21.13a2.43,2.43,0,0,1-.41,3.59,49.32,49.32,0,0,1-75.06-12.64,49.07,49.07,0,0,1-6.56-24.93v-.14a30.08,30.08,0,0,1,.28-4,49.23,49.23,0,0,1,49-45.16,49,49,0,0,1,26.17,7.25A47.3,47.3,0,0,1,874.75,70.43Zm-38,2.21a21.73,21.73,0,0,0-10.08,2.42,15.3,15.3,0,0,0-6.77,6.28.59.59,0,0,0,0,.76.58.58,0,0,0,.69.21l25.55-5.52a.67.67,0,0,0,.48-.55.75.75,0,0,0-.21-.69A16.44,16.44,0,0,0,836.77,72.64Z"/></g></g></svg>